<svg version="1.2" xmlns="http://www.w3.org/2000/svg" viewBox="0 0 24 24" width="24" height="24">
	<title>clock-svg</title>
	<style>
		.s0 { fill: #141414 } 
	</style>
	<filter id="f0">
		<feFlood flood-color="#ffffff" flood-opacity="1" />
		<feBlend mode="normal" in2="SourceGraphic"/>
		<feComposite in2="SourceAlpha" operator="in" />
	</filter>
	<g filter="url(#f0)">
		<path class="s0" d="m12.5 4.5c0-0.3-0.2-0.5-0.5-0.5-0.3 0-0.5 0.2-0.5 0.5v7.5c0 0.2 0.1 0.4 0.3 0.5l5 2c0.3 0.1 0.6-0.1 0.7-0.3 0.1-0.3-0.1-0.6-0.3-0.7l-4.7-1.8z"/>
		<path fill-rule="evenodd" class="s0" d="m12 24c-6.6 0-12-5.4-12-12 0-6.6 5.4-12 12-12 6.6 0 12 5.4 12 12 0 6.6-5.4 12-12 12zm0-1c6.1 0 11-4.9 11-11 0-6.1-4.9-11-11-11-6.1 0-11 4.9-11 11 0 6.1 4.9 11 11 11z"/>
	</g>
</svg>