<svg version="1.2" xmlns="http://www.w3.org/2000/svg" viewBox="0 0 256 256" width="256" height="256">
	<title>heart-svg</title>
	<style>
		.s0 { fill: #ffffff } 
	</style>
	<path fill-rule="evenodd" class="s0" d="m128 220q-0.2 0-0.5 0-0.3-0.1-0.5-0.1-0.3-0.1-0.5-0.2-0.2-0.1-0.4-0.2-6.8-4-13.4-8.3-6.6-4.3-12.9-8.9-6.4-4.7-12.5-9.6-6.1-5-12-10.2c-34-30.7-51.3-61.1-51.3-90.5 0-12.2 4-24.1 11.4-33.9 7.4-9.7 17.8-16.8 29.6-20.1 11.8-3.2 24.4-2.6 35.7 2 11.4 4.5 21 12.6 27.3 23.1 6.3-10.5 15.9-18.6 27.3-23.1 11.3-4.6 23.9-5.2 35.7-2 11.8 3.3 22.2 10.4 29.6 20.1 7.4 9.8 11.4 21.7 11.4 33.9 0 29.4-17.3 59.8-51.3 90.5q-5.9 5.2-12 10.2-6.1 4.9-12.4 9.6-6.4 4.6-13 8.9-6.6 4.3-13.3 8.3-0.3 0.1-0.5 0.2-0.2 0.1-0.5 0.2-0.2 0-0.5 0.1-0.2 0-0.5 0zm-48-176c-6.3 0-12.5 1.3-18.4 3.7-5.8 2.4-11.1 5.9-15.5 10.4-4.5 4.4-8 9.7-10.4 15.5-2.4 5.9-3.7 12.1-3.7 18.4 0 59.7 82.2 111.1 96 119.4 13.8-8.3 96-59.7 96-119.4 0-11.1-3.8-21.8-10.9-30.4-7-8.6-16.8-14.5-27.7-16.7-10.9-2.1-22.1-0.5-31.9 4.7-9.8 5.2-17.5 13.7-21.8 23.9-0.3 0.7-0.8 1.4-1.5 1.8-0.6 0.4-1.4 0.7-2.2 0.7-0.8 0-1.6-0.3-2.2-0.7-0.7-0.4-1.2-1.1-1.5-1.8-1.8-4.3-4.2-8.4-7.2-12-3-3.7-6.5-6.9-10.5-9.5-3.9-2.6-8.2-4.6-12.7-6-4.5-1.3-9.2-2-13.9-2z"/>
</svg>